# xmcd
#
# Track frame offsets:
#	150
#	34145
#	56593
#	74797
#	95998
#	118475
#	131378
#	140935
#	154316
#	171460
#	191901
#	210260
#	225046
#	253083
#
# Disc length: 3646 seconds
# Revision: 0
# Processed by: cddbd v1.5.2PL0 Copyright (c) Steve Scherf et al.
# Submitted via: dBpowerAMP V12.0
#
DISCID=de0e3c0e
DTITLE=Various Artist - Rattlesnake Guitar – Peter Green Songbook
DYEAR=1995
DGENRE=
TTITLE0=Billy Sheehan - Oh Well
TTITLE1=Jay Aston - I Loved Another Woman
TTITLE2=Zoot Money and Bobby Tench - Watcha Gonna Do
TTITLE3=Paul Jones and Bobby Tench - Albatros
TTITLE4=Jennifer Ferguson - Closing My Eyes
TTITLE5=Troy Turner - Lazy Poker Blues
TTITLE6=Pete McMahon - Evil Woman Blues
TTITLE7=Stu Hamm and Larry Mitchell - Fleetwood Mac
TTITLE8=Mick Abrahams - The Same Way
TTITLE9=Jon Paris - Watch Out
TTITLE10=Kim Lembo - A Fool No More
TTITLE11=Ken Hensley - Hellhound On My Trail
TTITLE12=Jim McCarty - Drifting
TTITLE13=Dave Peverett - If You Be My Baby
EXTD=
EXTT0=
EXTT1=
EXTT2=
EXTT3=
EXTT4=
EXTT5=
EXTT6=
EXTT7=
EXTT8=
EXTT9=
EXTT10=
EXTT11=
EXTT12=
EXTT13=
PLAYORDER=
